<svg xmlns="http://www.w3.org/2000/svg" width="1024" height="1024" viewBox="0 0 1024 1024" fill="none">
  <defs>
    <linearGradient id="background" x1="176" y1="128" x2="848" y2="896" gradientUnits="userSpaceOnUse">
      <stop stop-color="#9BEAF7"/>
      <stop offset="0.48" stop-color="#45C6E9"/>
      <stop offset="1" stop-color="#1297D2"/>
    </linearGradient>
    <filter id="shadow" x="194" y="250" width="636" height="538" filterUnits="userSpaceOnUse" color-interpolation-filters="sRGB">
      <feDropShadow dx="0" dy="16" stdDeviation="20" flood-color="#0876AE" flood-opacity="0.25"/>
    </filter>
  </defs>
  <rect width="1024" height="1024" rx="218" fill="url(#background)"/>
  <path d="M0 190C186 104 356 138 508 224C678 320 830 310 1024 202V0H0V190Z" fill="#FFFFFF" fill-opacity="0.24"/>
  <g filter="url(#shadow)">
    <path d="M512 700V372C432 322 344 326 252 382V672C344 622 432 628 512 684" stroke="#FFFFFF" stroke-width="42" stroke-linecap="round" stroke-linejoin="round"/>
    <path d="M512 700V372C592 322 680 326 772 382V672C680 622 592 628 512 684" stroke="#FFFFFF" stroke-width="42" stroke-linecap="round" stroke-linejoin="round"/>
    <circle cx="512" cy="526" r="64" fill="#FFFFFF"/>
    <circle cx="512" cy="526" r="23" fill="#29B7E1"/>
  </g>
</svg>
