<svg width="32" height="32" viewBox="0 0 32 32" fill="none" xmlns="http://www.w3.org/2000/svg">
  <!-- 背景圆形 -->
  <circle cx="16" cy="16" r="16" fill="#6366F1"/>
  
  <!-- 笔记本主体 -->
  <rect x="7" y="8" width="18" height="16" rx="2" fill="#FFFFFF" stroke="#6366F1" stroke-width="1"/>
  
  <!-- 笔记本装订线 -->
  <line x1="10" y1="8" x2="10" y2="24" stroke="#6366F1" stroke-width="1"/>
  <circle cx="10" cy="11" r="0.8" fill="none" stroke="#6366F1" stroke-width="0.5"/>
  <circle cx="10" cy="14" r="0.8" fill="none" stroke="#6366F1" stroke-width="0.5"/>
  <circle cx="10" cy="17" r="0.8" fill="none" stroke="#6366F1" stroke-width="0.5"/>
  <circle cx="10" cy="20" r="0.8" fill="none" stroke="#6366F1" stroke-width="0.5"/>
  
  <!-- 笔记内容线条 -->
  <line x1="12" y1="12" x2="22" y2="12" stroke="#E5E7EB" stroke-width="0.8"/>
  <line x1="12" y1="14.5" x2="20" y2="14.5" stroke="#E5E7EB" stroke-width="0.8"/>
  <line x1="12" y1="17" x2="23" y2="17" stroke="#E5E7EB" stroke-width="0.8"/>
  <line x1="12" y1="19.5" x2="18" y2="19.5" stroke="#E5E7EB" stroke-width="0.8"/>
  
  <!-- 神经连接网络 -->
  <circle cx="16" cy="4" r="1.5" fill="#F59E0B"/>
  <circle cx="24" cy="8" r="1" fill="#EF4444"/>
  <circle cx="28" cy="16" r="1.2" fill="#10B981"/>
  <circle cx="24" cy="24" r="1" fill="#8B5CF6"/>
  <circle cx="8" cy="28" r="1" fill="#F59E0B"/>
  <circle cx="4" cy="20" r="1.2" fill="#06B6D4"/>
  
  <!-- 连接线 -->
  <path d="M16 5.5 Q20 6 23 8" stroke="#F59E0B" stroke-width="1" fill="none" opacity="0.7"/>
  <path d="M24.8 8.8 Q26 12 28 15" stroke="#EF4444" stroke-width="1" fill="none" opacity="0.7"/>
  <path d="M27 17 Q25 20 24 23" stroke="#10B981" stroke-width="1" fill="none" opacity="0.7"/>
  <path d="M23 24.5 Q15 26 9 28" stroke="#8B5CF6" stroke-width="1" fill="none" opacity="0.7"/>
  <path d="M7.5 27.5 Q5.5 24 4 21" stroke="#F59E0B" stroke-width="1" fill="none" opacity="0.7"/>
  <path d="M4.5 19 Q8 16 15 4.5" stroke="#06B6D4" stroke-width="1" fill="none" opacity="0.7"/>
  
  <!-- 中心连接点 -->
  <circle cx="16" cy="16" r="2" fill="#6366F1" opacity="0.3"/>
  <circle cx="16" cy="16" r="1" fill="#FFFFFF"/>
</svg> 