<svg width="32" height="32" viewBox="0 0 32 32" xmlns="http://www.w3.org/2000/svg">
  <defs>
    <!-- 主背景渐变 - 蓝绿色系 -->
    <linearGradient id="bgGradient" x1="0%" y1="0%" x2="100%" y2="100%">
      <stop offset="0%" style="stop-color:#20B2AA;stop-opacity:1" />
      <stop offset="50%" style="stop-color:#48CAE4;stop-opacity:1" />
      <stop offset="100%" style="stop-color:#0077B6;stop-opacity:1" />
    </linearGradient>
    
    <!-- 神经节点渐变 -->
    <linearGradient id="nodeGradient" x1="0%" y1="0%" x2="100%" y2="100%">
      <stop offset="0%" style="stop-color:#E0FFFE;stop-opacity:1" />
      <stop offset="100%" style="stop-color:#4FC3F7;stop-opacity:1" />
    </linearGradient>
    
    <!-- 连接线渐变 -->
    <linearGradient id="connectionGradient" x1="0%" y1="0%" x2="100%" y2="100%">
      <stop offset="0%" style="stop-color:#FFFFFF;stop-opacity:0.9" />
      <stop offset="100%" style="stop-color:#81FBF5;stop-opacity:0.7" />
    </linearGradient>
  </defs>
  
  <!-- 圆角矩形背景 -->
  <rect width="32" height="32" rx="6" ry="6" fill="url(#bgGradient)"/>
  
  <!-- 神经网络连接线 -->
  <g opacity="0.8">
    <!-- 中心到角落的主要连接 -->
    <line x1="16" y1="16" x2="10" y2="10" stroke="url(#connectionGradient)" stroke-width="1.5"/>
    <line x1="16" y1="16" x2="22" y2="10" stroke="url(#connectionGradient)" stroke-width="1.5"/>
    <line x1="16" y1="16" x2="22" y2="22" stroke="url(#connectionGradient)" stroke-width="1.5"/>
    <line x1="16" y1="16" x2="10" y2="22" stroke="url(#connectionGradient)" stroke-width="1.5"/>
    
    <!-- 次级连接 -->
    <line x1="16" y1="16" x2="16" y2="7" stroke="url(#connectionGradient)" stroke-width="1.2"/>
    <line x1="16" y1="16" x2="25" y2="16" stroke="url(#connectionGradient)" stroke-width="1.2"/>
    <line x1="16" y1="16" x2="16" y2="25" stroke="url(#connectionGradient)" stroke-width="1.2"/>
    <line x1="16" y1="16" x2="7" y2="16" stroke="url(#connectionGradient)" stroke-width="1.2"/>
  </g>
  
  <!-- 外围神经节点 -->
  <circle cx="10" cy="10" r="2" fill="url(#nodeGradient)" stroke="#FFFFFF" stroke-width="0.5"/>
  <circle cx="22" cy="10" r="2" fill="url(#nodeGradient)" stroke="#FFFFFF" stroke-width="0.5"/>
  <circle cx="22" cy="22" r="2" fill="url(#nodeGradient)" stroke="#FFFFFF" stroke-width="0.5"/>
  <circle cx="10" cy="22" r="2" fill="url(#nodeGradient)" stroke="#FFFFFF" stroke-width="0.5"/>
  
  <!-- 中间层节点 -->
  <circle cx="16" cy="7" r="1.5" fill="url(#nodeGradient)" stroke="#FFFFFF" stroke-width="0.5"/>
  <circle cx="25" cy="16" r="1.5" fill="url(#nodeGradient)" stroke="#FFFFFF" stroke-width="0.5"/>
  <circle cx="16" cy="25" r="1.5" fill="url(#nodeGradient)" stroke="#FFFFFF" stroke-width="0.5"/>
  <circle cx="7" cy="16" r="1.5" fill="url(#nodeGradient)" stroke="#FFFFFF" stroke-width="0.5"/>
  
  <!-- 中心核心节点 -->
  <circle cx="16" cy="16" r="2.5" fill="#FFFFFF" stroke="url(#nodeGradient)" stroke-width="1"/>
  
  <!-- 装饰性脉冲效果 -->
  <circle cx="16" cy="16" r="4" fill="none" stroke="url(#nodeGradient)" stroke-width="0.5" opacity="0.5"/>
  <circle cx="16" cy="16" r="5.5" fill="none" stroke="url(#nodeGradient)" stroke-width="0.3" opacity="0.3"/>
</svg>