<svg width="100" height="100" viewBox="0 0 100 100" xmlns="http://www.w3.org/2000/svg">
  <defs>
    <!-- 主背景渐变 - 蓝绿色系 -->
    <linearGradient id="bgGradient" x1="0%" y1="0%" x2="100%" y2="100%">
      <stop offset="0%" style="stop-color:#20B2AA;stop-opacity:1" />
      <stop offset="30%" style="stop-color:#48CAE4;stop-opacity:1" />
      <stop offset="70%" style="stop-color:#0077B6;stop-opacity:1" />
      <stop offset="100%" style="stop-color:#03045E;stop-opacity:1" />
    </linearGradient>
    
    <!-- 神经节点渐变 -->
    <linearGradient id="nodeGradient" x1="0%" y1="0%" x2="100%" y2="100%">
      <stop offset="0%" style="stop-color:#E0FFFE;stop-opacity:1" />
      <stop offset="50%" style="stop-color:#B2F7EF;stop-opacity:1" />
      <stop offset="100%" style="stop-color:#4FC3F7;stop-opacity:1" />
    </linearGradient>
    
    <!-- 连接线渐变 -->
    <linearGradient id="connectionGradient" x1="0%" y1="0%" x2="100%" y2="100%">
      <stop offset="0%" style="stop-color:#FFFFFF;stop-opacity:0.9" />
      <stop offset="50%" style="stop-color:#B2F7EF;stop-opacity:0.8" />
      <stop offset="100%" style="stop-color:#48CAE4;stop-opacity:0.7" />
    </linearGradient>
    
    <!-- 发光效果 -->
    <filter id="glow">
      <feGaussianBlur stdDeviation="2" result="coloredBlur"/>
      <feMerge> 
        <feMergeNode in="coloredBlur"/>
        <feMergeNode in="SourceGraphic"/>
      </feMerge>
    </filter>
  </defs>
  
  <!-- 圆角矩形背景 -->
  <rect width="100" height="100" rx="18" ry="18" fill="url(#bgGradient)"/>
  
  <!-- 神经网络连接线 -->
  <g opacity="0.85">
    <!-- 中心到角落的主要连接 -->
    <line x1="50" y1="50" x2="25" y2="25" stroke="url(#connectionGradient)" stroke-width="3"/>
    <line x1="50" y1="50" x2="75" y2="25" stroke="url(#connectionGradient)" stroke-width="3"/>
    <line x1="50" y1="50" x2="75" y2="75" stroke="url(#connectionGradient)" stroke-width="3"/>
    <line x1="50" y1="50" x2="25" y2="75" stroke="url(#connectionGradient)" stroke-width="3"/>
    
    <!-- 次级连接 -->
    <line x1="50" y1="50" x2="50" y2="15" stroke="url(#connectionGradient)" stroke-width="2.5"/>
    <line x1="50" y1="50" x2="85" y2="50" stroke="url(#connectionGradient)" stroke-width="2.5"/>
    <line x1="50" y1="50" x2="50" y2="85" stroke="url(#connectionGradient)" stroke-width="2.5"/>
    <line x1="50" y1="50" x2="15" y2="50" stroke="url(#connectionGradient)" stroke-width="2.5"/>
    
    <!-- 外围节点间的网络连接 -->
    <path d="M 25 25 Q 50 15 75 25" stroke="url(#connectionGradient)" stroke-width="1.5" fill="none" opacity="0.6"/>
    <path d="M 75 25 Q 85 50 75 75" stroke="url(#connectionGradient)" stroke-width="1.5" fill="none" opacity="0.6"/>
    <path d="M 75 75 Q 50 85 25 75" stroke="url(#connectionGradient)" stroke-width="1.5" fill="none" opacity="0.6"/>
    <path d="M 25 75 Q 15 50 25 25" stroke="url(#connectionGradient)" stroke-width="1.5" fill="none" opacity="0.6"/>
  </g>
  
  <!-- 外围神经节点 -->
  <circle cx="25" cy="25" r="4.5" fill="url(#nodeGradient)" stroke="#FFFFFF" stroke-width="1.2" filter="url(#glow)"/>
  <circle cx="75" cy="25" r="4.5" fill="url(#nodeGradient)" stroke="#FFFFFF" stroke-width="1.2" filter="url(#glow)"/>
  <circle cx="75" cy="75" r="4.5" fill="url(#nodeGradient)" stroke="#FFFFFF" stroke-width="1.2" filter="url(#glow)"/>
  <circle cx="25" cy="75" r="4.5" fill="url(#nodeGradient)" stroke="#FFFFFF" stroke-width="1.2" filter="url(#glow)"/>
  
  <!-- 中间层节点 -->
  <circle cx="50" cy="15" r="3.5" fill="url(#nodeGradient)" stroke="#FFFFFF" stroke-width="1" filter="url(#glow)"/>
  <circle cx="85" cy="50" r="3.5" fill="url(#nodeGradient)" stroke="#FFFFFF" stroke-width="1" filter="url(#glow)"/>
  <circle cx="50" cy="85" r="3.5" fill="url(#nodeGradient)" stroke="#FFFFFF" stroke-width="1" filter="url(#glow)"/>
  <circle cx="15" cy="50" r="3.5" fill="url(#nodeGradient)" stroke="#FFFFFF" stroke-width="1" filter="url(#glow)"/>
  
  <!-- 中心核心节点 -->
  <circle cx="50" cy="50" r="6.5" fill="#FFFFFF" stroke="url(#nodeGradient)" stroke-width="2" filter="url(#glow)"/>
  
  <!-- 装饰性脉冲效果 -->
  <circle cx="50" cy="50" r="12" fill="none" stroke="url(#nodeGradient)" stroke-width="1" opacity="0.5"/>
  <circle cx="50" cy="50" r="18" fill="none" stroke="url(#nodeGradient)" stroke-width="0.8" opacity="0.3"/>
  <circle cx="50" cy="50" r="24" fill="none" stroke="url(#nodeGradient)" stroke-width="0.5" opacity="0.2"/>
</svg>